#include "hUGEDriver.h"
#include <stddef.h>

static const unsigned char order_cnt = 8;

static const unsigned char P0[] = {
    DN(F_3,2,0x000),
    DN(___,0,0x000),
    DN(___,0,0x000),
    DN(___,0,0x000),
    DN(___,0,0xA02),
    DN(___,0,0x000),
    DN(___,0,0x000),
    DN(___,0,0x000),
    DN(___,0,0xA02),
    DN(___,0,0x000),
    DN(___,0,0x000),
    DN(___,0,0x000),
    DN(___,0,0xA02),
    DN(___,0,0x000),
    DN(___,0,0x000),
    DN(___,0,0x000),
    DN(D_5,6,0x036),
    DN(___,0,0x036),
    DN(___,0,0x036),
    DN(C_5,6,0x025),
    DN(___,0,0x025),
    DN(___,0,0xE00),
    DN(___,0,0x000),
    DN(___,0,0x000),
    DN(D_5,6,0x036),
    DN(___,0,0x036),
    DN(___,0,0x036),
    DN(C_5,6,0x025),
    DN(___,0,0x025),
    DN(___,0,0xE00),
    DN(___,0,0x000),
    DN(___,0,0x000),
    DN(F_3,2,0x000),
    DN(___,0,0x000),
    DN(___,0,0x000),
    DN(___,0,0x000),
    DN(___,0,0xA02),
    DN(___,0,0x000),
    DN(___,0,0x000),
    DN(___,0,0x000),
    DN(___,0,0xA02),
    DN(___,0,0x000),
    DN(___,0,0x000),
    DN(___,0,0x000),
    DN(C_5,6,0x000),
    DN(C_5,6,0x020),
    DN(Gs4,6,0x000),
    DN(___,0,0x000),
    DN(D_5,6,0x036),
    DN(___,0,0x036),
    DN(___,0,0x036),
    DN(C_5,6,0x025),
    DN(___,0,0x025),
    DN(___,0,0xE00),
    DN(___,0,0x000),
    DN(___,0,0x000),
    DN(___,0,0x000),
    DN(___,0,0x000),
    DN(___,0,0x000),
    DN(___,0,0x000),
    DN(___,0,0x000),
    DN(___,0,0x000),
    DN(___,0,0x000),
    DN(___,0,0x000),
};
static const unsigned char P1[] = {
    DN(F_3,6,0x000),
    DN(___,0,0x000),
    DN(___,0,0x000),
    DN(___,0,0x000),
    DN(C_3,6,0x000),
    DN(___,0,0x000),
    DN(___,0,0x000),
    DN(___,0,0x000),
    DN(F_3,6,0x000),
    DN(___,0,0x000),
    DN(___,0,0x000),
    DN(___,0,0x000),
    DN(C_3,6,0x000),
    DN(___,0,0x000),
    DN(___,0,0x000),
    DN(___,0,0x000),
    DN(F_3,6,0x000),
    DN(___,0,0x000),
    DN(___,0,0x000),
    DN(___,0,0x000),
    DN(C_3,6,0x000),
    DN(___,0,0x000),
    DN(___,0,0x000),
    DN(___,0,0x000),
    DN(F_3,6,0x000),
    DN(___,0,0x000),
    DN(C_3,6,0x000),
    DN(___,0,0x000),
    DN(D_3,6,0x000),
    DN(___,0,0x000),
    DN(E_3,6,0x000),
    DN(___,0,0x000),
    DN(F_3,6,0x000),
    DN(___,0,0x000),
    DN(___,0,0x000),
    DN(___,0,0x000),
    DN(C_3,6,0x000),
    DN(___,0,0x000),
    DN(___,0,0x000),
    DN(___,0,0x000),
    DN(F_3,6,0x000),
    DN(___,0,0x000),
    DN(___,0,0x000),
    DN(___,0,0x000),
    DN(C_3,6,0x000),
    DN(___,0,0x000),
    DN(___,0,0x000),
    DN(___,0,0x000),
    DN(F_3,6,0x000),
    DN(___,0,0x000),
    DN(___,0,0x000),
    DN(___,0,0x000),
    DN(C_3,6,0x000),
    DN(___,0,0x000),
    DN(___,0,0x000),
    DN(___,0,0x000),
    DN(___,0,0x000),
    DN(___,0,0x000),
    DN(C_3,6,0x000),
    DN(___,0,0x000),
    DN(D_3,6,0x000),
    DN(___,0,0x000),
    DN(E_3,6,0x000),
    DN(___,0,0x000),
};
static const unsigned char P2[] = {
    DN(___,0,0x000),
    DN(___,0,0x000),
    DN(___,0,0x000),
    DN(___,0,0x000),
    DN(___,0,0x000),
    DN(___,0,0x000),
    DN(___,0,0x000),
    DN(___,0,0x000),
    DN(___,0,0x000),
    DN(___,0,0x000),
    DN(___,0,0x000),
    DN(___,0,0x000),
    DN(___,0,0x000),
    DN(___,0,0x000),
    DN(___,0,0x000),
    DN(___,0,0x000),
    DN(___,0,0x000),
    DN(___,0,0x000),
    DN(___,0,0x000),
    DN(___,0,0x000),
    DN(___,0,0x000),
    DN(___,0,0x000),
    DN(___,0,0x000),
    DN(___,0,0x000),
    DN(___,0,0x000),
    DN(___,0,0x000),
    DN(___,0,0x000),
    DN(___,0,0x000),
    DN(___,0,0x000),
    DN(___,0,0x000),
    DN(___,0,0x000),
    DN(___,0,0x000),
    DN(___,0,0x000),
    DN(___,0,0x000),
    DN(___,0,0x000),
    DN(___,0,0x000),
    DN(___,0,0x000),
    DN(___,0,0x000),
    DN(___,0,0x000),
    DN(___,0,0x000),
    DN(___,0,0x000),
    DN(___,0,0x000),
    DN(___,0,0x000),
    DN(___,0,0x000),
    DN(___,0,0x000),
    DN(___,0,0x000),
    DN(___,0,0x000),
    DN(___,0,0x000),
    DN(___,0,0x000),
    DN(___,0,0x000),
    DN(___,0,0x000),
    DN(___,0,0x000),
    DN(___,0,0x000),
    DN(___,0,0x000),
    DN(___,0,0x000),
    DN(___,0,0x000),
    DN(___,0,0x000),
    DN(___,0,0x000),
    DN(___,0,0x000),
    DN(___,0,0x000),
    DN(___,0,0x000),
    DN(___,0,0x000),
    DN(___,0,0x000),
    DN(___,0,0x000),
};
static const unsigned char P3[] = {
    DN(___,0,0x000),
    DN(___,0,0x000),
    DN(C_8,1,0x000),
    DN(___,0,0x000),
    DN(___,0,0x000),
    DN(___,0,0x000),
    DN(C_8,1,0x000),
    DN(___,0,0x000),
    DN(___,0,0x000),
    DN(___,0,0x000),
    DN(C_8,1,0x000),
    DN(___,0,0x000),
    DN(___,0,0x000),
    DN(___,0,0x000),
    DN(C_8,1,0x000),
    DN(___,0,0x000),
    DN(___,0,0x000),
    DN(___,0,0x000),
    DN(C_8,1,0x000),
    DN(___,0,0x000),
    DN(___,0,0x000),
    DN(___,0,0x000),
    DN(C_8,1,0x000),
    DN(___,0,0x000),
    DN(___,0,0x000),
    DN(___,0,0x000),
    DN(C_8,1,0x000),
    DN(___,0,0x000),
    DN(___,0,0x000),
    DN(C_8,2,0x000),
    DN(___,0,0x000),
    DN(___,0,0x000),
    DN(C_8,2,0x000),
    DN(___,0,0x000),
    DN(C_8,1,0x000),
    DN(___,0,0x000),
    DN(___,0,0x000),
    DN(___,0,0x000),
    DN(C_8,1,0x000),
    DN(___,0,0x000),
    DN(___,0,0x000),
    DN(___,0,0x000),
    DN(C_8,1,0x000),
    DN(___,0,0x000),
    DN(___,0,0x000),
    DN(___,0,0x000),
    DN(C_8,1,0x000),
    DN(___,0,0x000),
    DN(___,0,0x000),
    DN(___,0,0x000),
    DN(C_8,1,0x000),
    DN(___,0,0x000),
    DN(___,0,0x000),
    DN(___,0,0x000),
    DN(C_8,1,0x000),
    DN(___,0,0x000),
    DN(___,0,0x000),
    DN(___,0,0x000),
    DN(C_8,1,0x000),
    DN(___,0,0x000),
    DN(___,0,0x000),
    DN(___,0,0x000),
    DN(C_8,1,0x000),
    DN(___,0,0x000),
};
static const unsigned char P4[] = {
    DN(F_5,6,0x000),
    DN(G_5,6,0x000),
    DN(Gs5,6,0x000),
    DN(B_5,6,0x000),
    DN(As5,6,0x000),
    DN(___,0,0x000),
    DN(Gs5,6,0x000),
    DN(___,0,0x000),
    DN(F_5,2,0x000),
    DN(___,0,0x000),
    DN(___,0,0x000),
    DN(___,0,0x000),
    DN(___,0,0xA02),
    DN(___,0,0x000),
    DN(___,0,0xA02),
    DN(___,0,0x000),
    DN(D_5,6,0x036),
    DN(___,0,0x036),
    DN(___,0,0x036),
    DN(C_5,6,0x025),
    DN(___,0,0x025),
    DN(___,0,0xE00),
    DN(___,0,0x000),
    DN(___,0,0x000),
    DN(D_5,6,0x036),
    DN(___,0,0x036),
    DN(___,0,0x036),
    DN(C_5,6,0x025),
    DN(___,0,0x025),
    DN(___,0,0xE00),
    DN(___,0,0x000),
    DN(___,0,0x000),
    DN(F_5,6,0x000),
    DN(G_5,6,0x000),
    DN(Gs5,6,0x000),
    DN(B_5,6,0x000),
    DN(As5,6,0x000),
    DN(___,0,0x000),
    DN(Gs5,6,0x000),
    DN(___,0,0x000),
    DN(F_5,2,0x000),
    DN(___,0,0x000),
    DN(___,0,0x000),
    DN(___,0,0x000),
    DN(___,0,0xA02),
    DN(___,0,0x000),
    DN(___,0,0xA02),
    DN(___,0,0x000),
    DN(D_5,6,0x036),
    DN(___,0,0x036),
    DN(___,0,0x036),
    DN(C_5,6,0x025),
    DN(___,0,0x025),
    DN(___,0,0xE00),
    DN(___,0,0x000),
    DN(___,0,0x000),
    DN(D_5,6,0x036),
    DN(___,0,0x036),
    DN(___,0,0x036),
    DN(C_5,6,0x025),
    DN(___,0,0x025),
    DN(___,0,0xE00),
    DN(___,0,0x000),
    DN(___,0,0x000),
};
static const unsigned char P5[] = {
    DN(F_3,6,0x000),
    DN(___,0,0x000),
    DN(___,0,0x000),
    DN(___,0,0x000),
    DN(C_3,6,0x000),
    DN(___,0,0x000),
    DN(___,0,0x000),
    DN(___,0,0x000),
    DN(F_3,6,0x000),
    DN(___,0,0x000),
    DN(___,0,0x000),
    DN(___,0,0x000),
    DN(C_3,6,0x000),
    DN(___,0,0x000),
    DN(___,0,0x000),
    DN(___,0,0x000),
    DN(F_3,6,0x000),
    DN(___,0,0x000),
    DN(___,0,0x000),
    DN(___,0,0x000),
    DN(C_3,6,0x000),
    DN(___,0,0x000),
    DN(___,0,0x000),
    DN(___,0,0x000),
    DN(F_3,6,0x000),
    DN(___,0,0x000),
    DN(___,0,0x000),
    DN(___,0,0x000),
    DN(C_3,6,0x000),
    DN(___,0,0x000),
    DN(C_3,5,0x000),
    DN(C_3,5,0x047),
    DN(F_3,6,0x000),
    DN(___,0,0x000),
    DN(___,0,0x000),
    DN(___,0,0x000),
    DN(C_3,6,0x000),
    DN(___,0,0x000),
    DN(___,0,0x000),
    DN(___,0,0x000),
    DN(F_3,6,0x000),
    DN(___,0,0x000),
    DN(___,0,0x000),
    DN(___,0,0x000),
    DN(C_3,6,0x000),
    DN(___,0,0x000),
    DN(___,0,0x000),
    DN(___,0,0x000),
    DN(F_3,6,0x000),
    DN(___,0,0x000),
    DN(___,0,0x000),
    DN(___,0,0x000),
    DN(C_3,6,0x000),
    DN(___,0,0x000),
    DN(___,0,0x000),
    DN(___,0,0x000),
    DN(F_3,6,0x000),
    DN(___,0,0x000),
    DN(___,0,0x000),
    DN(___,0,0x000),
    DN(C_3,6,0x000),
    DN(___,0,0x000),
    DN(B_3,6,0x000),
    DN(___,0,0x000),
};
static const unsigned char P7[] = {
    DN(___,0,0x000),
    DN(___,0,0x000),
    DN(C_8,1,0x000),
    DN(___,0,0x000),
    DN(___,0,0x000),
    DN(___,0,0x000),
    DN(C_8,1,0x000),
    DN(___,0,0x000),
    DN(___,0,0x000),
    DN(___,0,0x000),
    DN(C_8,1,0x000),
    DN(___,0,0x000),
    DN(___,0,0x000),
    DN(___,0,0x000),
    DN(C_8,1,0x000),
    DN(___,0,0x000),
    DN(___,0,0x000),
    DN(___,0,0x000),
    DN(C_8,1,0x000),
    DN(___,0,0x000),
    DN(___,0,0x000),
    DN(___,0,0x000),
    DN(C_8,1,0x000),
    DN(___,0,0x000),
    DN(___,0,0x000),
    DN(___,0,0x000),
    DN(C_8,1,0x000),
    DN(___,0,0x000),
    DN(___,0,0x000),
    DN(___,0,0x000),
    DN(C_8,1,0x000),
    DN(___,0,0x000),
    DN(___,0,0x000),
    DN(___,0,0x000),
    DN(C_8,1,0x000),
    DN(___,0,0x000),
    DN(___,0,0x000),
    DN(___,0,0x000),
    DN(C_8,1,0x000),
    DN(___,0,0x000),
    DN(___,0,0x000),
    DN(___,0,0x000),
    DN(C_8,1,0x000),
    DN(___,0,0x000),
    DN(___,0,0x000),
    DN(___,0,0x000),
    DN(C_8,1,0x000),
    DN(___,0,0x000),
    DN(___,0,0x000),
    DN(___,0,0x000),
    DN(C_8,1,0x000),
    DN(___,0,0x000),
    DN(___,0,0x000),
    DN(___,0,0x000),
    DN(C_8,1,0x000),
    DN(___,0,0x000),
    DN(___,0,0x000),
    DN(___,0,0x000),
    DN(C_8,1,0x000),
    DN(___,0,0x000),
    DN(___,0,0x000),
    DN(___,0,0x000),
    DN(C_8,1,0x000),
    DN(___,0,0x000),
};
static const unsigned char P8[] = {
    DN(As5,6,0x000),
    DN(C_6,6,0x000),
    DN(Cs6,6,0x000),
    DN(E_6,6,0x000),
    DN(Ds6,6,0x000),
    DN(___,0,0x000),
    DN(D_6,6,0x000),
    DN(___,0,0x000),
    DN(As5,2,0x000),
    DN(___,0,0x000),
    DN(___,0,0x000),
    DN(___,0,0x000),
    DN(___,0,0xA02),
    DN(___,0,0x000),
    DN(___,0,0xA02),
    DN(___,0,0x000),
    DN(G_5,6,0x036),
    DN(___,0,0x036),
    DN(___,0,0x036),
    DN(F_5,6,0x025),
    DN(___,0,0x025),
    DN(___,0,0xE00),
    DN(___,0,0x000),
    DN(___,0,0x000),
    DN(D_5,6,0x036),
    DN(___,0,0x036),
    DN(___,0,0x036),
    DN(Cs5,6,0x036),
    DN(___,0,0x036),
    DN(___,0,0x036),
    DN(___,0,0x000),
    DN(___,0,0x000),
    DN(F_5,6,0x000),
    DN(G_5,6,0x000),
    DN(Gs5,6,0x000),
    DN(B_5,6,0x000),
    DN(As5,6,0x000),
    DN(___,0,0x000),
    DN(Gs5,6,0x000),
    DN(___,0,0x000),
    DN(F_5,2,0x000),
    DN(___,0,0x000),
    DN(___,0,0x000),
    DN(___,0,0x000),
    DN(___,0,0xA02),
    DN(___,0,0x000),
    DN(___,0,0xA02),
    DN(___,0,0x000),
    DN(D_5,6,0x036),
    DN(___,0,0x036),
    DN(___,0,0x036),
    DN(C_5,6,0x025),
    DN(___,0,0x025),
    DN(___,0,0xE00),
    DN(___,0,0x000),
    DN(___,0,0x000),
    DN(D_5,6,0x036),
    DN(___,0,0x036),
    DN(___,0,0x036),
    DN(C_5,6,0x025),
    DN(___,0,0x025),
    DN(___,0,0xE00),
    DN(___,0,0x000),
    DN(___,0,0x000),
};
static const unsigned char P9[] = {
    DN(As3,6,0x000),
    DN(___,0,0x000),
    DN(___,0,0x000),
    DN(___,0,0x000),
    DN(Cs4,6,0x000),
    DN(___,0,0x000),
    DN(___,0,0x000),
    DN(___,0,0x000),
    DN(As3,6,0x000),
    DN(___,0,0x000),
    DN(___,0,0x000),
    DN(___,0,0x000),
    DN(Cs4,6,0x000),
    DN(___,0,0x000),
    DN(Cs4,6,0x000),
    DN(___,0,0x000),
    DN(As3,6,0x000),
    DN(___,0,0x000),
    DN(___,0,0x000),
    DN(___,0,0x000),
    DN(Cs4,6,0x000),
    DN(___,0,0x000),
    DN(___,0,0x000),
    DN(___,0,0x000),
    DN(As3,6,0x000),
    DN(___,0,0x000),
    DN(___,0,0x000),
    DN(___,0,0x000),
    DN(Cs4,6,0x000),
    DN(___,0,0x000),
    DN(___,0,0x000),
    DN(___,0,0x000),
    DN(F_3,6,0x000),
    DN(___,0,0x000),
    DN(___,0,0x000),
    DN(___,0,0x000),
    DN(C_3,6,0x000),
    DN(___,0,0x000),
    DN(___,0,0x000),
    DN(___,0,0x000),
    DN(F_3,6,0x000),
    DN(___,0,0x000),
    DN(___,0,0x000),
    DN(___,0,0x000),
    DN(C_3,6,0x000),
    DN(___,0,0x000),
    DN(___,0,0x000),
    DN(___,0,0x000),
    DN(F_3,6,0x000),
    DN(___,0,0x000),
    DN(___,0,0x000),
    DN(___,0,0x000),
    DN(C_3,6,0x000),
    DN(___,0,0x000),
    DN(___,0,0x000),
    DN(___,0,0x000),
    DN(F_3,6,0x000),
    DN(___,0,0x000),
    DN(___,0,0x000),
    DN(___,0,0x000),
    DN(C_3,6,0x000),
    DN(___,0,0x000),
    DN(___,0,0x000),
    DN(___,0,0x000),
};
static const unsigned char P13[] = {
    DN(G_5,6,0x000),
    DN(A_5,6,0x000),
    DN(As5,6,0x000),
    DN(C_6,6,0x000),
    DN(Cs6,6,0x000),
    DN(C_6,6,0x000),
    DN(___,0,0x000),
    DN(B_5,6,0x000),
    DN(___,0,0x000),
    DN(As5,6,0x000),
    DN(___,0,0x000),
    DN(A_5,6,0x000),
    DN(___,0,0x000),
    DN(Gs5,2,0x000),
    DN(___,0,0xA02),
    DN(___,0,0xA02),
    DN(C_6,6,0x000),
    DN(D_6,6,0x000),
    DN(Ds6,6,0x000),
    DN(F_6,6,0x000),
    DN(Fs6,6,0x000),
    DN(F_6,6,0x000),
    DN(___,0,0x000),
    DN(Ds6,6,0x000),
    DN(___,0,0x000),
    DN(D_6,6,0x000),
    DN(___,0,0x000),
    DN(Cs6,2,0x000),
    DN(___,0,0xA02),
    DN(___,0,0xA02),
    DN(___,0,0xA02),
    DN(___,0,0xA02),
    DN(F_5,6,0x000),
    DN(G_5,6,0x000),
    DN(Gs5,6,0x000),
    DN(B_5,6,0x000),
    DN(As5,6,0x000),
    DN(___,0,0x000),
    DN(Gs5,6,0x000),
    DN(___,0,0x000),
    DN(F_5,2,0x000),
    DN(___,0,0x000),
    DN(___,0,0xA02),
    DN(___,0,0x000),
    DN(___,0,0xA02),
    DN(___,0,0x000),
    DN(___,0,0xA02),
    DN(___,0,0x000),
    DN(D_5,6,0x036),
    DN(___,0,0x036),
    DN(___,0,0x036),
    DN(C_5,6,0x025),
    DN(___,0,0x025),
    DN(___,0,0xE00),
    DN(___,0,0x000),
    DN(___,0,0x000),
    DN(D_5,6,0x036),
    DN(___,0,0x036),
    DN(___,0,0x036),
    DN(C_5,6,0x025),
    DN(___,0,0x025),
    DN(___,0,0xE00),
    DN(___,0,0x000),
    DN(___,0,0x000),
};
static const unsigned char P14[] = {
    DN(___,0,0x000),
    DN(___,0,0x000),
    DN(___,0,0x000),
    DN(___,0,0x000),
    DN(Fs4,6,0x000),
    DN(___,0,0x000),
    DN(___,0,0x000),
    DN(___,0,0x000),
    DN(Ds4,6,0x000),
    DN(___,0,0x000),
    DN(___,0,0x000),
    DN(___,0,0x000),
    DN(D_4,6,0x000),
    DN(___,0,0x000),
    DN(___,0,0x000),
    DN(___,0,0x000),
    DN(C_4,6,0x000),
    DN(___,0,0x000),
    DN(E_4,6,0x000),
    DN(___,0,0x000),
    DN(As3,6,0x000),
    DN(___,0,0x000),
    DN(E_4,6,0x000),
    DN(___,0,0x000),
    DN(Gs3,6,0x000),
    DN(___,0,0x000),
    DN(E_4,6,0x000),
    DN(___,0,0x000),
    DN(G_3,6,0x000),
    DN(___,0,0x000),
    DN(E_4,6,0x000),
    DN(___,0,0x000),
    DN(F_4,6,0x000),
    DN(___,0,0x000),
    DN(___,0,0x000),
    DN(___,0,0x000),
    DN(C_4,6,0x000),
    DN(___,0,0x000),
    DN(___,0,0x000),
    DN(___,0,0x000),
    DN(F_4,6,0x000),
    DN(___,0,0x000),
    DN(___,0,0x000),
    DN(___,0,0x000),
    DN(C_4,6,0x000),
    DN(___,0,0x000),
    DN(___,0,0x000),
    DN(___,0,0x000),
    DN(F_4,6,0x000),
    DN(___,0,0x000),
    DN(___,0,0x000),
    DN(___,0,0x000),
    DN(C_4,6,0x000),
    DN(___,0,0x000),
    DN(___,0,0x000),
    DN(___,0,0x000),
    DN(F_4,6,0x000),
    DN(___,0,0x000),
    DN(___,0,0x000),
    DN(___,0,0x000),
    DN(C_4,6,0x000),
    DN(___,0,0x000),
    DN(___,0,0x000),
    DN(___,0,0x000),
};

static const unsigned char* const order1[] = {P0,P4,P8,P13};
static const unsigned char* const order2[] = {P1,P5,P9,P14};
static const unsigned char* const order3[] = {P2,P2,P2,P2};
static const unsigned char* const order4[] = {P3,P7,P7,P7};

static const hUGEDutyInstr_t duty_instruments[] = {
    {9,0,167,0,128},
    {8,64,128,0,128},
    {8,128,128,0,128},
    {8,192,128,0,128},
    {8,0,129,0,128},
    {0,64,129,0,128},
    {8,128,241,0,128},
    {8,192,241,0,128},
    {8,128,240,0,128},
    {8,128,240,0,128},
    {8,128,240,0,128},
    {8,128,240,0,128},
    {8,128,240,0,128},
    {8,128,240,0,128},
    {8,128,240,0,128},
};
static const hUGEWaveInstr_t wave_instruments[] = {
    {0,32,0,0,128},
    {0,32,1,0,128},
    {0,32,2,0,128},
    {0,32,3,0,128},
    {0,32,4,0,128},
    {0,32,5,0,128},
    {0,32,6,0,128},
    {0,32,7,0,128},
    {0,32,8,0,128},
    {0,32,9,0,128},
    {0,32,10,0,128},
    {0,32,12,0,128},
    {0,32,12,0,128},
    {0,32,13,0,128},
    {0,32,14,0,128},
};
static const hUGENoiseInstr_t noise_instruments[] = {
    {81,0,0,0,0},
    {162,0,0,0,0},
    {240,0,0,0,0},
    {240,0,0,0,0},
    {240,0,0,0,0},
    {240,0,0,0,0},
    {240,0,0,0,0},
    {240,0,0,0,0},
    {240,0,0,0,0},
    {240,0,0,0,0},
    {240,0,0,0,0},
    {240,0,0,0,0},
    {240,0,0,0,0},
    {240,0,0,0,0},
    {240,0,0,0,0},
};

static const unsigned char waves[] = {
    0,0,255,255,255,255,255,255,255,255,255,255,255,255,255,255,
    0,0,0,0,255,255,255,255,255,255,255,255,255,255,255,255,
    0,0,0,0,0,0,0,0,255,255,255,255,255,255,255,255,
    0,0,0,0,0,0,0,0,0,0,0,0,255,255,255,255,
    0,1,18,35,52,69,86,103,120,137,154,171,188,205,222,239,
    254,220,186,152,118,84,50,16,18,52,86,120,154,188,222,255,
    122,205,219,117,33,19,104,189,220,151,65,1,71,156,221,184,
    15,15,15,15,15,15,15,15,15,15,15,15,15,15,15,15,
    254,252,250,248,246,244,242,240,242,244,246,248,250,252,254,255,
    254,221,204,187,170,153,136,119,138,189,241,36,87,138,189,238,
    132,17,97,237,87,71,90,173,206,163,23,121,221,32,3,71,
    184,172,120,228,177,166,119,214,72,84,58,122,102,6,101,194,
    33,42,205,221,202,151,102,137,153,152,102,103,136,153,152,83,
    160,149,20,234,73,44,160,93,60,209,210,106,160,222,128,24,
    113,206,197,107,26,6,123,147,148,133,96,33,225,93,2,172,
    25,36,204,76,102,103,219,219,123,158,36,7,88,149,171,213,
};

const hUGESong_t botanic_panic_boss = {5, &order_cnt, order1, order2, order3,order4, duty_instruments, wave_instruments, noise_instruments, NULL, waves};
